[img]http://img824.imageshack.us/img824/8246/blurayflyboys320x200.jpg[/img]
 
http://www.imdb.com/title/tt0454824/

Source: Flyboys.2006.BluRay.720p.x264.DTS.DualAudio-MySilu

Subs: Dutch, English.

Sample and Screens included.

General
Complete name                    : Flyboys 2006-720p MP4 AAC BRRip-CC\Flyboys 2006-720p MP4 AAC BRRip-CC.mp4
Format                           : MPEG-4
Format profile                   : Base Media
Codec ID                         : isom
File size                        : 1.79 GiB
Duration                         : 2h 18mn
Overall bit rate                 : 1 842 Kbps
Encoded date                     : UTC 2011-11-27 15:46:16
Tagged date                      : UTC 2011-11-27 15:46:16
Writing application              : Yamb 2.1.0.0 

Video
ID                               : 1
Format                           : AVC
Format/Info                      : Advanced Video Codec
Format profile                   : High@L4.0
Format settings, CABAC           : Yes
Format settings, ReFrames        : 5 frames
Codec ID                         : avc1
Codec ID/Info                    : Advanced Video Coding
Duration                         : 2h 18mn
Bit rate mode                    : Variable
Bit rate                         : 1 521 Kbps
Maximum bit rate                 : 8 632 Kbps
Width                            : 1 280 pixels
Height                           : 544 pixels
Display aspect ratio             : 2.35:1
Frame rate mode                  : Constant
Frame rate                       : 23.976 fps
Resolution                       : 8 bits
Colorimetry                      : 4:2:0
Scan type                        : Progressive
Bits/(Pixel*Frame)               : 0.091
Stream size                      : 1.47 GiB (83%)
Title                            : ripbot
Writing library                  : x264 core 104 r1683 62997d6
Encoding settings                : cabac=1 / ref=5 / deblock=1:0:0 / analyse=0x3:0x133 / me=umh / subme=7 / psy=1 / psy_rd=1.00:0.00 / mixed_ref=1 / me_range=16 / chroma_me=1 / trellis=1 / 8x8dct=1 / cqm=0 / deadzone=21,11 / fast_pskip=1 / chroma_qp_offset=-2 / threads=3 / sliced_threads=0 / nr=0 / decimate=1 / interlaced=0 / constrained_intra=0 / bframes=5 / b_pyramid=0 / b_adapt=1 / b_bias=0 / direct=1 / weightb=1 / open_gop=0 / weightp=2 / keyint=240 / keyint_min=24 / scenecut=40 / intra_refresh=0 / rc_lookahead=40 / rc=crf / mbtree=1 / crf=22.0 / qcomp=0.60 / qpmin=10 / qpmax=51 / qpstep=4 / vbv_maxrate=25000 / vbv_bufsize=25000 / crf_max=0.0 / ip_ratio=1.40 / aq=1:1.00 / nal_hrd=vbr
Encoded date                     : UTC 2011-11-27 13:30:17
Tagged date                      : UTC 2011-11-27 15:48:55

Audio
ID                               : 2
Format                           : AAC
Format/Info                      : Advanced Audio Codec
Format version                   : Version 4
Format profile                   : LC
Format settings, SBR             : No
Codec ID                         : 40
Duration                         : 2h 18mn
Bit rate mode                    : Variable
Bit rate                         : 317 Kbps
Maximum bit rate                 : 335 Kbps
Channel(s)                       : 6 channels
Channel positions                : Front: L C R, Rear: L R, LFE
Sampling rate                    : 48.0 KHz
Stream size                      : 315 MiB (17%)
Title                            : Imported with GPAC 0.4.6-DEV (internal rev. 5)
Language                         : English
Encoded date                     : UTC 2011-11-27 15:47:59
Tagged date                      : UTC 2011-11-27 15:48:55

Enjoy...

[img]http://img64.imageshack.us/img64/5120/flyboys2006720pmp4aacbr.jpg[/img]